<svg width="248" height="384" viewBox="0 0 248 384" fill="none" xmlns="http://www.w3.org/2000/svg">
<path d="M59.648 92.56V282H15.872V92.56H59.648Z" fill="#E1E1E6"/>
<path d="M52 218C90.2935 218 108.073 218 125.852 218C143.631 218 146.712 230.044 123.116 236.375C123.116 236.375 123.116 270.5 123.116 281" stroke="#E1E1E6" stroke-width="40"/>
<path d="M196 100C134.5 107 104.5 143.5 90.5 182.5C195.5 165.5 177 209.5 177 282.5M147 115.945C153.5 139.445 169 172.5 210.5 167.5" stroke="#B38B6D" stroke-width="8"/>
<path d="M248 99.5C248 114.688 235.688 127 220.5 127C205.312 127 193 114.688 193 99.5C193 84.3122 205.312 72 220.5 72C235.688 72 248 84.3122 248 99.5Z" fill="#B38B6D"/>
<path d="M248 99.5C248 114.688 235.688 127 220.5 127C205.312 127 193 114.688 193 99.5C193 84.3122 205.312 72 220.5 72C235.688 72 248 84.3122 248 99.5Z" fill="#B38B6D"/>
<rect x="239.685" y="154.225" width="13" height="30.5" rx="3" transform="rotate(75 239.685 154.225)" fill="#121214" stroke="#7C7C8A" stroke-width="2"/>
</svg>
